Coordinates
version=1
nRows=11
nColumns=36
inDegrees=yes

Units are S.I. units (second, meters, Newtons, ...)
If the header above contains a line with 'inDegrees', this indicates whether rotational values are in degrees (yes) or radians (no).

endheader
time	pelvis_tilt	pelvis_list	pelvis_rotation	pelvis_tx	pelvis_ty	pelvis_tz	hip_flexion_r	hip_adduction_r	hip_rotation_r	knee_angle_r	knee_angle_r_beta	ankle_angle_r	subtalar_angle_r	mtp_angle_r	hip_flexion_l	hip_adduction_l	hip_rotation_l	knee_angle_l	knee_angle_l_beta	ankle_angle_l	subtalar_angle_l	mtp_angle_l	lumbar_extension	lumbar_bending	lumbar_rotation	arm_flex_r	arm_add_r	arm_rot_r	elbow_flex_r	pro_sup_r	arm_flex_l	arm_add_l	arm_rot_l	elbow_flex_l	pro_sup_l
      5.41666670	     -7.93033636	      6.73832408	      3.83248869	      1.03803423	      0.94304186	      0.04460518	     12.84041390	     -1.39147695	      4.46693982	     10.48416215	      0.18298315	     13.75201967	     -9.70519823	     -7.49999987	     41.51446303	     -0.72606489	     -7.34980935	     78.86306685	      1.37642017	     -8.08217320	    -11.83525281	     -7.49999987	     -3.40058561	      0.81079770	      4.22596023	     -3.98299831	    -20.83293041	     -8.38461208	     61.06372427	     85.86868297	     -6.29097480	    -39.82802278	     -8.97085608	    146.45820439	     88.36422035
      5.43333330	     -7.37646205	      7.39922260	      3.25963340	      1.03743193	      0.94494166	      0.04549089	     11.59307968	     -2.03498821	      5.01522514	      9.09232992	      0.15869109	     13.64475807	     -9.40489631	     -7.49999987	     42.59921948	     -0.45358544	     -7.82830635	     79.53092770	      1.38807655	     -8.37705307	    -11.87259789	     -7.49999987	     -3.49129150	     -0.10126518	      4.80857009	     -4.35366516	    -20.85705265	     -8.34628847	     61.37006421	     85.80318553	     -8.65614530	    -37.63533708	     -8.06757703	    146.15126419	     88.57682311
      5.45000000	     -6.75307282	      8.08738304	      2.83211654	      1.04108558	      0.94792844	      0.04338422	     10.31045160	     -2.81302437	      5.40823798	      7.80204994	      0.13617146	     13.45010762	     -9.17293838	     -7.49999987	     43.73099446	     -0.08814479	     -8.38810307	     80.37155077	      1.40274819	     -8.21136073	    -11.03423969	     -7.49999987	     -3.83926641	     -0.95847707	      4.96051313	     -4.54339192	    -20.80435453	     -8.39129670	     61.62903452	     85.74263315	    -10.88410052	    -35.34725988	     -7.11033204	    145.48051213	     88.82865085
      5.46666670	     -5.93506012	      8.62033972	      2.34960036	      1.04048587	      0.94999436	      0.04406652	      8.94011760	     -3.37458336	      5.81274780	      6.68075897	      0.11660124	     13.08772275	     -9.23700158	     -7.49999987	     44.53534106	     -0.02033342	     -8.66526156	     81.14782256	      1.41629668	     -7.02126200	     -8.81031507	     -7.49999987	     -4.61706408	     -1.65011083	      4.53349414	     -4.11546560	    -20.42108007	     -8.15323344	     61.89709850	     85.59446626	    -13.60380606	    -33.25578901	     -7.29907882	    145.16303473	     89.92406065
      5.48333330	     -5.22294854	      9.15151498	      1.85178906	      1.03953785	      0.95052361	      0.04486968	      7.90951995	     -3.91538581	      6.15593830	      5.97682778	      0.10431532	     12.75503250	     -9.37513403	     -7.49999987	     45.63337395	      0.12637116	     -8.77160989	     82.13101266	      1.43345659	     -6.18994136	     -8.26114631	     -7.49999987	     -5.04341739	     -2.45384197	      3.16035083	     -2.30679589	    -20.21017361	     -5.85743543	     60.64120121	     85.46396117	    -17.67793132	    -30.41337580	     -9.26154067	    145.22099871	     94.39692722
      5.50000000	     -4.54300930	      9.54936144	      1.36274385	      1.03897931	      0.95256717	      0.04550484	      7.05082732	     -4.25480137	      6.38647263	      5.61262214	      0.09795874	     12.78606659	     -9.28507819	     -7.49999987	     46.89126026	      0.17617616	     -9.03736883	     83.40980638	      1.45577575	     -5.51663988	     -8.94112524	     -7.49999987	     -5.49970662	     -3.21043013	      3.45844375	     -2.40831457	    -19.79916933	     -5.97039677	     60.65239775	     85.30149737	    -18.91911607	    -28.06863598	     -8.05151851	    143.74031906	     94.31151232
      5.51666670	     -3.78665917	     10.02842050	      1.07286590	      1.03771065	      0.95303828	      0.04609368	      6.21270242	     -4.71120611	      6.48352554	      5.44987071	      0.09511819	     12.66893000	     -9.47810677	     -7.49999987	     48.07448222	      0.38169513	     -9.35370498	     84.88903735	      1.48159320	     -4.77378053	    -10.05039014	     -7.49999987	     -6.15532218	     -4.12946566	      3.37274459	     -2.10426522	    -19.20434728	     -6.22165280	     60.63430048	     85.28335797	    -19.65666648	    -25.94331991	     -7.20634381	    142.36164061	     94.49016339
      5.53333330	     -2.96496404	     10.38286170	      1.04918137	      1.04105974	      0.95326197	      0.04362295	      5.15511911	     -5.12777945	      6.46659982	      5.27719686	      0.09210446	     12.49419296	     -9.91193006	     -7.49999987	     48.99509412	      0.74488656	     -9.79679117	     86.19534055	      1.50439249	     -4.02255560	    -10.90917476	     -7.49999987	     -6.51291227	     -4.87715808	      3.36641916	     -2.08872504	    -18.64643355	     -6.99988389	     60.20247338	     85.27751651	    -20.07664933	    -24.29108688	     -7.29542294	    140.45472444	     94.83181129
      5.55000000	     -2.35577887	     10.86813916	      0.77923960	      1.03984025	      0.95400214	      0.04424008	      4.56462922	     -5.64164375	      6.50912415	      5.41560687	      0.09452017	     12.69037992	    -10.11311084	     -7.49999987	     50.49760551	      1.12374520	    -10.08765141	     87.51684926	      1.52745717	     -3.24069033	    -11.20871242	     -7.49999987	     -6.85501120	     -5.85590670	      3.48227194	     -2.09946601	    -18.35082523	     -7.22054494	     60.37461691	     85.20972314	    -20.37924693	    -22.95476536	     -7.18639773	    138.89212739	     94.79839795
      5.56666670	     -1.82355504	     11.19494343	      0.67822936	      1.04270088	      0.95415112	      0.04755229	      3.93069323	     -5.92478719	      6.50004198	      5.50738548	      0.09612201	     12.93007483	    -10.36729311	     -7.49999987	     51.73383056	      1.50036126	     -9.77344406	     88.33668063	      1.54176593	     -2.56581199	    -11.27799506	     -7.49999987	     -7.01879816	     -6.75543091	      3.47541374	     -2.21904114	    -17.86525347	     -7.27402577	     60.45519060	     85.09757022	    -20.51186686	    -21.87835406	     -7.04880247	    136.86489764	     94.63193774
      5.58333330	     -1.38880330	     11.45433592	      0.73815908	      1.04168157	      0.95519197	      0.04781179	      3.27426868	     -6.11005289	      6.76979734	      5.41109739	      0.09444147	     12.22553239	    -11.81014999	     -7.49999987	     52.96676510	      1.97095840	     -9.17280872	     89.26510293	      1.55796995	     -1.47479851	    -10.85348644	     -7.49999987	     -6.70951273	     -7.28670941	      4.28154779	     -2.89353383	    -17.37804815	     -8.96672087	     60.65778738	     85.50224743	    -18.97397728	    -21.17721487	     -6.20758389	    132.70853263	     95.17754296
